<?xml version="1.0" encoding="utf-8"?>
<!-- Svg Vector Icons : http://www.onlinewebfonts.com/icon -->
<!DOCTYPE svg PUBLIC "-//W3C//DTD SVG 1.1//EN" "http://www.w3.org/Graphics/SVG/1.1/DTD/svg11.dtd">
<svg version="1.1" xmlns="http://www.w3.org/2000/svg" xmlns:xlink="http://www.w3.org/1999/xlink" x="0px" y="0px" viewBox="0 0 1000 1000" enable-background="new 0 0 1000 1000" xml:space="preserve">
<metadata> Svg Vector Icons : http://www.onlinewebfonts.com/icon </metadata>
<g><path d="M500,713.3c95.6,0,172.8-82,172.8-182.7v-338C672.8,92,595.6,10,500,10S327.2,92,327.2,192.7v338C327.2,631.3,404.4,713.3,500,713.3z"/><path d="M742.8,360v174.3c0,131.7-108.9,238.9-240.6,238.9S261.6,666,261.6,534.3V360H220v174.3c0,147,115.9,268.2,262.5,278.9v137.4H322.8V990H675v-39.4H524.1V813.3C668.4,802.5,780,681.3,780,534.3V360H742.8z"/></g>
</svg>